<?xml version="1.0" encoding="UTF-8"?> <svg xmlns="http://www.w3.org/2000/svg" width="321" height="46" viewBox="0 0 321 46" fill="none"><g clip-path="url(#clip0_758_2)"><path fill-rule="evenodd" clip-rule="evenodd" d="M19.3299 0L26.9591 2.54991L9.82947 22.5379L26.9591 42.5053L19.3299 45.0552L0 22.5379L19.3299 0Z" fill="white"></path><path fill-rule="evenodd" clip-rule="evenodd" d="M301.012 0L293.362 2.54991L310.512 22.5379L293.362 42.5053L301.012 45.0552L320.342 22.5379L301.012 0Z" fill="white"></path><path d="M33.0049 1.21875H68.8681V11.0277H57.0439V45.5748H44.7057V11.0277H33.0049V1.21875Z" fill="white"></path><path d="M101.831 11.0893H85.7914V18.3278H99.9598V27.7049H85.7914V35.7042H101.831V45.5748H73.4531V1.21875H101.831V11.0893Z" fill="white"></path><path d="M124.657 45.9998C114.786 45.9998 107.095 41.2907 106.602 31.7697H119.742C119.989 35.101 121.942 36.232 124.204 36.232C126.466 36.232 128.111 35.101 128.111 33.024C128.05 25.909 106.54 29.2403 106.725 13.8381C106.725 5.16016 113.963 0.492188 123.34 0.492188C133.54 0.492188 140.203 5.46862 140.635 14.2699H127.227C127.104 11.4938 125.397 10.2394 123.135 10.2394C121.305 10.1777 119.865 11.247 119.865 13.3857C119.865 19.9866 141.19 17.848 141.19 32.0781C141.19 39.8718 135.144 45.9792 124.636 45.9792L124.657 45.9998Z" fill="white"></path><path d="M144.462 1.21875H180.325V11.0277H168.501V45.5748H156.163V11.0277H144.462V1.21875Z" fill="white"></path><path d="M204.363 1.21875C215.365 1.21875 220.917 7.51126 220.917 15.4489C220.917 21.2273 217.771 26.2654 211.17 28.2806L221.184 45.5748H207.407L198.606 29.2266H197.289V45.5748H184.951V1.21875H204.384H204.363ZM203.356 11.5418H197.248V20.7954H203.356C206.687 20.7954 208.394 19.1709 208.394 16.148C208.394 13.3719 206.687 11.5623 203.356 11.5623V11.5418Z" fill="white"></path><path d="M290.012 15.8173H276.728C275.35 13.4936 272.82 12.1775 269.427 12.1775C263.197 12.1775 259.433 16.5164 259.433 23.3025C259.433 30.9111 263.341 35.0032 270.641 35.0032C274.918 35.0032 278.064 32.988 279.894 29.1426H267.494V20.2796H290.526V32.2271C287.894 38.7047 281.025 45.8815 269.448 45.8815C255.855 45.8815 246.931 36.5661 246.931 23.3025C246.931 10.0388 255.794 0.785156 269.386 0.785156C280.594 0.785156 288.264 6.56357 290.012 15.8173Z" fill="white"></path><path d="M247.505 1.44141H235.167L232.35 11.5382H244.688L247.505 1.44141Z" fill="black"></path><path d="M222.829 45.7999H235.167L243.845 14.543H231.528L222.829 45.7999Z" fill="black"></path></g><defs><clipPath id="clip0_758_2"><rect width="320.342" height="46.0011" fill="white"></rect></clipPath></defs></svg> 